<?xml version="1.0" encoding="utf-8"?>
<!-- Generator: Adobe Illustrator 16.0.1, SVG Export Plug-In . SVG Version: 6.00 Build 0)  -->
<!DOCTYPE svg PUBLIC "-//W3C//DTD SVG 1.1//EN" "http://www.w3.org/Graphics/SVG/1.1/DTD/svg11.dtd">
<svg version="1.1" id="Layer_1" xmlns="http://www.w3.org/2000/svg" xmlns:xlink="http://www.w3.org/1999/xlink" x="0px" y="0px"
	 width="75px" height="75px" viewBox="0 0 75 75" enable-background="new 0 0 75 75" xml:space="preserve">
<path fill="#FFFFFF" d="M60.11,35.431c0.458-1.588,0.712-3.28,0.712-5.039c0-9.049-6.548-16.385-14.623-16.385
	c-6.5,0-12.002,4.753-13.906,11.329c-1.466-1.963-3.668-3.213-6.127-3.213c-4.418,0-7.996,4.01-7.996,8.958
	c0,1.413,0.299,2.747,0.821,3.934c-0.673-0.134-1.358-0.215-2.062-0.215c-6.458,0-11.849,5.866-11.849,13.101
	C5.08,54.903,10,60.607,16,60.967v0.003l42.004-0.006c5.682-0.892,10.14-6.452,10.14-13.063
	C68.144,42.065,64.814,37.126,60.11,35.431z M56.219,35.148c0,2.14-1.734,3.875-3.875,3.875s-3.875-1.735-3.875-3.875
	s1.734-3.875,3.875-3.875S56.219,33.008,56.219,35.148z M44.555,19.123c3.038,0,5.498,2.462,5.498,5.499s-2.46,5.499-5.498,5.499
	c-3.037,0-5.498-2.462-5.498-5.499S41.518,19.123,44.555,19.123z M26.867,27.398c2.141,0,3.875,1.735,3.875,3.875
	s-1.734,3.875-3.875,3.875s-3.875-1.735-3.875-3.875S24.727,27.398,26.867,27.398z M10.719,46.246c0-2.141,1.734-3.875,3.875-3.875
	s3.875,1.734,3.875,3.875s-1.734,3.875-3.875,3.875S10.719,48.387,10.719,46.246z M45.025,54.63
	c-1.329,0.562-2.338,1.257-3.424,1.408c-5.424,0.746-10.86,1.436-16.311,1.969c-2.857,0.282-5.754,0.296-8.629,0.22
	c-0.98-0.028-1.945-0.704-2.918-1.083c0.698-0.725,1.27-1.717,2.12-2.123c3.464-1.65,6.97-3.233,10.542-4.628
	c3.704-1.447,7.471-2.754,11.271-3.931c5.098-1.576,6.377-0.752,7.334,4.537C45.213,52.128,45.031,53.325,45.025,54.63z
	 M47.77,53.659c-1.914-1.123-3.102-6.171-1.856-8.241C47.842,47.067,48.848,51.726,47.77,53.659z M63.936,40.282
	c-1.02,3.951-2.1,7.902-5.275,10.771c-2.871,2.593-7.351,2.158-9.373-0.809c-1.037-1.526-1.266-3.148-0.343-4.777
	c1.21-2.137,2.917-3.633,5.53-3.641c0.727-0.002,1.475,0.145,2.18,0.346c2.555,0.727,4.687,0.141,6.393-1.921
	c0.184-0.222,0.406-0.409,0.735-0.739C63.865,39.906,63.979,40.114,63.936,40.282z"/>
</svg>
