<?xml version="1.0" encoding="UTF-8" standalone="no"?>
<!-- Created with Inkscape (http://www.inkscape.org/) -->

<svg
   xmlns:dc="http://purl.org/dc/elements/1.1/"
   xmlns:cc="http://creativecommons.org/ns#"
   xmlns:rdf="http://www.w3.org/1999/02/22-rdf-syntax-ns#"
   xmlns:svg="http://www.w3.org/2000/svg"
   xmlns="http://www.w3.org/2000/svg"
   version="1.1"
   width="55"
   height="55"
   id="svg2">
  <metadata
     id="metadata15">
    <rdf:RDF>
      <cc:Work
         rdf:about="">
        <dc:format>image/svg+xml</dc:format>
        <dc:type
           rdf:resource="http://purl.org/dc/dcmitype/StillImage" />
        <dc:title></dc:title>
      </cc:Work>
    </rdf:RDF>
  </metadata>
  <defs
     id="defs11" />
  <g
     transform="matrix(1.0038882,0,0,1.1835055,-0.10692543,-11.290374)"
     id="g3094"
     style="fill:#ffffff;fill-opacity:1">
    <path
       d="m 47.107841,31.319641 c 0.08392,-0.698046 0.126946,-1.410811 0.126946,-2.135845 0,-8.559315 -6.050395,-15.498042 -13.514413,-15.498042 -5.501191,0 -10.234785,3.769314 -12.343924,9.178846 -1.240417,-1.181399 -2.833702,-1.891097 -4.572223,-1.891097 -3.954703,0 -7.1606377,3.676077 -7.1606377,8.210908 0,0.673507 0.071004,1.327999 0.2038674,1.954277 -0.082299,-0.0024 -0.1656759,-0.0037 -0.2485138,-0.0037 -4.9670471,-0.0012 -8.99436804,4.616412 -8.99436804,10.313627 0,5.697213 4.02732094,10.314854 9.03955234,10.417289 L 45.444628,51.76351 c 4.94822,-0.02761 8.950797,-4.634815 8.950797,-10.314855 0,-5.026772 -3.136007,-9.214422 -7.287584,-10.128993 z"
       id="path3076"
       style="fill:#ffffff;fill-opacity:1" />
    <text
       transform="matrix(0,-1,1,0,0,0)"
       id="text3082"
       style="font-size:10px;font-style:normal;font-weight:normal;text-align:end;line-height:125%;letter-spacing:0px;word-spacing:0px;text-anchor:end;fill:#ffffff;fill-opacity:1">
      <tspan
         x="-15.459675"
         y="35.856224"
         id="tspan3084"
         style="fill:#ffffff;fill-opacity:1">
        <tspan
           id="tspan3086"
           style="font-size:10px;fill:#ffffff;fill-opacity:1" />
      </tspan>
    </text>
  </g>
  <path
     d="m 24.004238,27.266949 a 3.9618645,3.9618645 0 1 1 -7.923729,0 3.9618645,3.9618645 0 1 1 7.923729,0 z"
     transform="translate(-12.118644,6.5254237)"
     id="path3094"
     style="fill:#000000;fill-opacity:1;fill-rule:nonzero;stroke:none" />
  <path
     d="m 24.004238,27.266949 a 3.9618645,3.9618645 0 1 1 -7.923729,0 3.9618645,3.9618645 0 1 1 7.923729,0 z"
     transform="translate(-3.0296617,-6.2923723)"
     id="path3094-7"
     style="fill:#000000;fill-opacity:1;fill-rule:nonzero;stroke:none" />
  <path
     d="m 24.004238,27.266949 a 3.9618645,3.9618645 0 1 1 -7.923729,0 3.9618645,3.9618645 0 1 1 7.923729,0 z"
     transform="matrix(1.4401004,0,0,1.4401004,4.2301895,-26.449348)"
     id="path3094-7-1"
     style="fill:#000000;fill-opacity:1;fill-rule:nonzero;stroke:none" />
  <path
     d="m 24.004238,27.266949 a 3.9618645,3.9618645 0 1 1 -7.923729,0 3.9618645,3.9618645 0 1 1 7.923729,0 z"
     transform="translate(24.470338,4.6610173)"
     id="path3094-7-11"
     style="fill:#000000;fill-opacity:1;fill-rule:nonzero;stroke:none" />
  <g
     transform="matrix(0.8161096,0,0,0.8161096,8.1810873,9.9009777)"
     id="Brush"
     style="fill:#000000;fill-opacity:1">
    <g
       id="g4026"
       style="fill:#000000;fill-opacity:1;display:inline">
      <path
         d="m 26.939,32.777 c 0,0 9.546,-10.04 12.062,-13.721 C 42.698,13.65 44.989,8.227 42.995,7.281 41.527,6.584 36.526,10.715 33.524,15.177 31.491,18.205 24,30.635 24,30.635 l 2.939,2.142 z"
         id="path4028"
         style="fill:#000000;fill-opacity:1" />
      <path
         d="m 25.613,34.668 -2.971,-2.166 c 0,0 -3.054,1.592 -4.602,3.862 -1.546,2.284 -2.31,6.661 -4.752,9.01 -1.465,1.409 -0.186,1.085 -0.186,1.085 0,0 7.907,-2.985 9.786,-5.477 1.862,-2.47 2.725,-6.314 2.725,-6.314 z"
         id="path4030"
         style="fill:#000000;fill-opacity:1" />
    </g>
  </g>
</svg>
