<?xml version="1.0" encoding="UTF-8" standalone="no"?>
<!-- Created with Inkscape (http://www.inkscape.org/) -->

<svg
   xmlns:dc="http://purl.org/dc/elements/1.1/"
   xmlns:cc="http://creativecommons.org/ns#"
   xmlns:rdf="http://www.w3.org/1999/02/22-rdf-syntax-ns#"
   xmlns:svg="http://www.w3.org/2000/svg"
   xmlns="http://www.w3.org/2000/svg"
   version="1.1"
   width="55"
   height="55"
   id="svg2">
  <metadata
     id="metadata15">
    <rdf:RDF>
      <cc:Work
         rdf:about="">
        <dc:format>image/svg+xml</dc:format>
        <dc:type
           rdf:resource="http://purl.org/dc/dcmitype/StillImage" />
        <dc:title></dc:title>
      </cc:Work>
    </rdf:RDF>
  </metadata>
  <defs
     id="defs11" />
  <g
     transform="matrix(1.0038882,0,0,1.1835055,-0.10692557,-11.383581)"
     id="g3094"
     style="fill:#ffffff;fill-opacity:1">
    <path
       d="m 47.107841,31.319641 c 0.08392,-0.698046 0.126946,-1.410811 0.126946,-2.135845 0,-8.559315 -6.050395,-15.498042 -13.514413,-15.498042 -5.501191,0 -10.234785,3.769314 -12.343924,9.178846 -1.240417,-1.181399 -2.833702,-1.891097 -4.572223,-1.891097 -3.954703,0 -7.1606377,3.676077 -7.1606377,8.210908 0,0.673507 0.071004,1.327999 0.2038674,1.954277 -0.082299,-0.0024 -0.1656759,-0.0037 -0.2485138,-0.0037 -4.9670471,-0.0012 -8.99436804,4.616412 -8.99436804,10.313627 0,5.697213 4.02732094,10.314854 9.03955234,10.417289 L 45.444628,51.76351 c 4.94822,-0.02761 8.950797,-4.634815 8.950797,-10.314855 0,-5.026772 -3.136007,-9.214422 -7.287584,-10.128993 z"
       id="path3076"
       style="fill:#ffffff;fill-opacity:1" />
    <text
       x="-32.453899"
       y="3.4417903"
       id="text3078"
       style="font-size:16px;font-style:normal;font-weight:normal;text-align:end;line-height:125%;letter-spacing:0px;word-spacing:0px;text-anchor:end;fill:#ffffff;fill-opacity:1">
      <tspan
         x="18.380148"
         y="46.251171"
         id="tspan3080"
         style="font-weight:bold;fill:#000000;fill-opacity:1;-inkscape-font-specification:Sans Bold">A</tspan>
    </text>
    <text
       transform="matrix(0,-1,1,0,0,0)"
       id="text3082"
       style="font-size:10px;font-style:normal;font-weight:normal;text-align:end;line-height:125%;letter-spacing:0px;word-spacing:0px;text-anchor:end;fill:#ffffff;fill-opacity:1">
      <tspan
         x="-15.459675"
         y="35.856224"
         id="tspan3084"
         style="fill:#ffffff;fill-opacity:1">
        <tspan
           id="tspan3086"
           style="font-size:10px;fill:#ffffff;fill-opacity:1" />
      </tspan>
    </text>
  </g>
  <path
     d="M 21.893778,33.106222 23.690571,27.154346 40.5355,11.993911 c 0,0 2.999181,-0.416439 4.042782,0.449198 1.084559,0.899608 1.235295,4.042782 1.235295,4.042782 L 28.182552,32.207825 z"
     id="path3872"
     style="fill:none;stroke:#000000;stroke-width:3.78755689;stroke-linecap:butt;stroke-linejoin:miter;stroke-miterlimit:4;stroke-opacity:1;stroke-dasharray:none" />
</svg>
