<?xml version="1.0" encoding="utf-8"?>
<!-- Generator: Adobe Illustrator 16.0.1, SVG Export Plug-In . SVG Version: 6.00 Build 0)  -->
<!DOCTYPE svg PUBLIC "-//W3C//DTD SVG 1.1//EN" "http://www.w3.org/Graphics/SVG/1.1/DTD/svg11.dtd">
<svg version="1.1" id="Layer_1" xmlns="http://www.w3.org/2000/svg" xmlns:xlink="http://www.w3.org/1999/xlink" x="0px" y="0px"
	 width="75px" height="75px" viewBox="0 0 75 75" enable-background="new 0 0 75 75" xml:space="preserve">
<path fill="#FFFFFF" d="M60.188,36.712c0.458-1.438,0.712-2.969,0.712-4.562c0-2.035-0.406-3.974-1.138-5.74
	c-0.063,0.075-0.124,0.15-0.199,0.226c-7.556,7.598-15.112,15.197-22.667,22.799c-0.111,0.112-0.178,0.267-0.266,0.401
	c-0.078-0.025-0.156-0.051-0.234-0.076c-0.033-0.452,0.009-0.926-0.113-1.353c-0.301-1.069,0.262-1.698,0.956-2.389
	c7.195-7.16,14.367-14.345,21.546-21.523c-0.467-0.784-1.002-1.52-1.601-2.201c-7.396,7.433-14.792,14.865-22.174,22.311
	c-0.372,0.374-0.722,0.583-1.251,0.459c-0.376-0.09-0.76-0.145-1.146-0.186c-1.093-0.113-1.536-0.708-1.854-1.787
	c-0.411-1.395-0.085-2.225,0.93-3.229c7.044-6.967,14.021-14.002,21.011-21.023c-0.859-0.427-1.764-0.77-2.706-1.021
	c-6.888,6.923-13.775,13.846-20.65,20.78c-0.517,0.521-1.007,0.94-1.806,0.904c-0.647-0.027-1.305,0.069-2.16,0.123
	c0.313-0.336,0.486-0.531,0.669-0.715c7.133-7.175,14.271-14.345,21.389-21.536c-0.384-0.031-0.768-0.06-1.159-0.06
	c-6.499,0-12.002,4.303-13.906,10.255c-1.466-1.776-3.668-2.908-6.128-2.908c-4.417,0-7.993,3.63-7.993,8.108
	c0,1.279,0.298,2.486,0.818,3.562c-0.671-0.121-1.356-0.195-2.062-0.195c-6.458,0-11.888,5.309-11.888,11.86
	C5.119,54.338,10,59.502,16,59.826v0.004l42.043-0.006c5.682-0.807,10.159-5.84,10.159-11.824
	C68.202,42.717,64.894,38.246,60.188,36.712z M21.818,55.625c-1.191,0.141-1.838-0.437-1.803-1.646
	c0.023-0.844,0.274-1.682,0.449-2.661c1.789,0.827,2.922,2.061,3.865,3.698C23.4,55.248,22.621,55.529,21.818,55.625z
	 M33.426,52.119c-2.049,0.621-4.098,1.249-6.133,1.916c-0.475,0.154-0.598-0.086-0.777-0.402c-0.984-1.734-2.229-3.232-3.97-4.26
	c-0.332-0.195-0.687-0.352-1.095-0.559c0.703-2.088,1.374-4.119,2.08-6.137c0.06-0.174,0.336-0.374,0.521-0.387
	c1.117-0.073,2.236-0.079,3.354-0.143c0.465-0.025,0.642,0.161,0.72,0.6c0.193,1.121,0.455,2.23,0.635,3.354
	c0.072,0.45,0.289,0.606,0.693,0.686c1.207,0.237,2.405,0.518,3.613,0.744c0.453,0.085,0.662,0.268,0.671,0.749
	c0.021,1.073,0.077,2.146,0.145,3.216C33.905,51.861,33.77,52.014,33.426,52.119z"/>
</svg>
