<?xml version="1.0" encoding="utf-8"?>
<!-- Generator: Adobe Illustrator 16.0.1, SVG Export Plug-In . SVG Version: 6.00 Build 0)  -->
<!DOCTYPE svg PUBLIC "-//W3C//DTD SVG 1.1//EN" "http://www.w3.org/Graphics/SVG/1.1/DTD/svg11.dtd">
<svg version="1.1" id="Layer_1" xmlns="http://www.w3.org/2000/svg" xmlns:xlink="http://www.w3.org/1999/xlink" x="0px" y="0px"
	 width="75px" height="75px" viewBox="0 0 75 75" enable-background="new 0 0 75 75" xml:space="preserve">
<path fill="#FFFFFF" d="M57.017,30.449c0.828,0,1.5-0.671,1.5-1.5s-0.672-1.5-1.5-1.5h-2.159v-5.345h2.159
	c0.828,0,1.5-0.671,1.5-1.5s-0.672-1.5-1.5-1.5h-2.159v-2.159c0-0.829-0.672-1.5-1.5-1.5s-1.5,0.671-1.5,1.5v2.159h-5.345v-2.159
	c0-0.829-0.672-1.5-1.5-1.5s-1.5,0.671-1.5,1.5v2.159h-5.345v-2.159c0-0.829-0.671-1.5-1.5-1.5s-1.5,0.671-1.5,1.5v2.159h-5.345
	v-2.159c0-0.829-0.671-1.5-1.5-1.5s-1.5,0.671-1.5,1.5v2.159h-5.346v-2.159c0-0.829-0.671-1.5-1.5-1.5s-1.5,0.671-1.5,1.5v2.159
	h-2.159c-0.829,0-1.5,0.671-1.5,1.5s0.671,1.5,1.5,1.5h2.159v5.345h-2.159c-0.829,0-1.5,0.671-1.5,1.5s0.671,1.5,1.5,1.5h2.159
	v5.345h-2.159c-0.829,0-1.5,0.671-1.5,1.5c0,0.828,0.671,1.5,1.5,1.5h2.159v5.345h-2.159c-0.829,0-1.5,0.672-1.5,1.5
	s0.671,1.5,1.5,1.5h2.159v5.345h-2.159c-0.829,0-1.5,0.672-1.5,1.5s0.671,1.5,1.5,1.5h2.159v2.159c0,0.828,0.671,1.5,1.5,1.5
	s1.5-0.672,1.5-1.5v-2.159h5.346v2.159c0,0.828,0.671,1.5,1.5,1.5s1.5-0.672,1.5-1.5v-2.159h5.345v2.159c0,0.828,0.671,1.5,1.5,1.5
	s1.5-0.672,1.5-1.5v-2.159h5.345v2.159c0,0.828,0.672,1.5,1.5,1.5s1.5-0.672,1.5-1.5v-2.159h5.345v2.159c0,0.828,0.672,1.5,1.5,1.5
	s1.5-0.672,1.5-1.5v-2.159h2.159c0.828,0,1.5-0.672,1.5-1.5s-0.672-1.5-1.5-1.5h-2.159v-5.345h2.159c0.828,0,1.5-0.672,1.5-1.5
	s-0.672-1.5-1.5-1.5h-2.159v-5.345h2.159c0.828,0,1.5-0.672,1.5-1.5c0-0.829-0.672-1.5-1.5-1.5h-2.159v-5.345H57.017z
	 M51.857,22.104v5.345h-5.345v-5.345H51.857z M43.513,22.104v5.345h-5.345v-5.345H43.513z M35.168,38.794v5.345h-5.345v-5.345
	H35.168z M29.823,35.794v-5.345h5.345v5.345H29.823z M38.168,38.794h5.345v5.345h-5.345V38.794z M38.168,35.794v-5.345h5.345v5.345
	H38.168z M35.168,22.104v5.345h-5.345v-5.345H35.168z M21.478,22.104h5.346v5.345h-5.346V22.104z M21.478,30.449h5.346v5.345h-5.346
	V30.449z M21.478,38.794h5.346v5.345h-5.346V38.794z M21.478,52.483v-5.345h5.346v5.345H21.478z M29.823,52.483v-5.345h5.345v5.345
	H29.823z M38.168,52.483v-5.345h5.345v5.345H38.168z M51.857,52.483h-5.345v-5.345h5.345V52.483z M51.857,44.139h-5.345v-5.345
	h5.345V44.139z M51.857,35.794h-5.345v-5.345h5.345V35.794z"/>
</svg>
