<?xml version="1.0" encoding="utf-8"?>
<!-- Generator: Adobe Illustrator 16.0.1, SVG Export Plug-In . SVG Version: 6.00 Build 0)  -->
<!DOCTYPE svg PUBLIC "-//W3C//DTD SVG 1.1//EN" "http://www.w3.org/Graphics/SVG/1.1/DTD/svg11.dtd">
<svg version="1.1" id="Layer_1" xmlns="http://www.w3.org/2000/svg" xmlns:xlink="http://www.w3.org/1999/xlink" x="0px" y="0px"
	 width="75px" height="75px" viewBox="0 0 75 75" enable-background="new 0 0 75 75" xml:space="preserve">
<path fill="#FFFFFF" d="M58.007,58.824L16.161,58.83v-0.004C9.991,58.502,5.082,53.338,5.082,47c0-6.551,5.232-11.86,11.69-11.86
	c0.705,0,1.391,0.074,2.063,0.195c-0.522-1.075-0.822-2.282-0.822-3.562c0-4.479,3.578-8.108,7.995-8.108
	c2.46,0,4.661,1.132,6.128,2.908c1.904-5.952,7.407-10.255,13.906-10.255c8.075,0,14.623,6.641,14.623,14.832
	c0,1.593-0.254,3.124-0.713,4.562c4.706,1.534,8.113,6.004,8.113,11.288C68.066,52.984,63.688,58.018,58.007,58.824z M34.414,38.994
	h-6.271c-1.604,0-2.597,1.037-2.597,2.596c0,1.557,0.993,2.594,2.597,2.594h6.271v6.271c0,1.557,0.992,2.597,2.592,2.597
	c1.604,0,2.596-1.04,2.596-2.597v-6.271h6.271c1.602,0,2.596-1.037,2.596-2.594c0-1.559-0.994-2.596-2.596-2.596h-6.271v-6.272
	c0-1.557-0.992-2.594-2.596-2.594c-1.6,0-2.592,1.037-2.592,2.594V38.994z"/>
</svg>
