<?xml version="1.0" encoding="utf-8"?>
<!-- Generator: Adobe Illustrator 16.0.1, SVG Export Plug-In . SVG Version: 6.00 Build 0)  -->
<!DOCTYPE svg PUBLIC "-//W3C//DTD SVG 1.1//EN" "http://www.w3.org/Graphics/SVG/1.1/DTD/svg11.dtd">
<svg version="1.1" id="Layer_1" xmlns="http://www.w3.org/2000/svg" xmlns:xlink="http://www.w3.org/1999/xlink" x="0px" y="0px"
	 width="75px" height="75px" viewBox="0 0 75 75" enable-background="new 0 0 75 75" xml:space="preserve">
<g>
	<g>
		<path fill="#FFFFFF" d="M28.252,33.919c0,0.951,0,2.414-1.771,2.414c-1.08,0-1.516-0.591-1.771-1.566
			c-0.951,1.13-2.107,1.722-3.521,1.722c-3.465,0-6.112-2.955-6.112-7.116c0-4.059,2.724-7.167,6.112-7.167
			c1.363,0,2.699,0.538,3.521,1.695c0.103-0.898,0.873-1.541,1.771-1.541c1.771,0,1.771,1.463,1.771,2.414V33.919z M21.703,33.098
			c1.927,0,2.852-1.952,2.852-3.725s-0.898-3.776-2.852-3.776c-2.028,0-2.93,2.003-2.93,3.776S19.699,33.098,21.703,33.098z"/>
		<path fill="#FFFFFF" d="M32.029,18.456c0-1.233,0.77-2.056,1.849-2.056c1.081,0,1.851,0.823,1.851,2.056v5.035
			c0.977-0.849,2.232-1.285,3.518-1.285c3.983,0,5.959,3.725,5.959,7.322c0,3.492-2.362,6.96-6.088,6.96
			c-1.258,0-2.695-0.565-3.389-1.696c-0.231,0.976-0.822,1.541-1.851,1.541c-1.079,0-1.849-0.82-1.849-2.055V18.456z M38.631,33.098
			c1.926,0,2.877-2.004,2.877-3.725c0-1.747-0.951-3.776-2.877-3.776c-1.979,0-2.902,1.85-2.902,3.646
			C35.729,31.042,36.601,33.098,38.631,33.098z"/>
		<path fill="#FFFFFF" d="M57.637,26.315c-0.922,0-1.744-0.718-2.926-0.718c-2.107,0-3.109,1.876-3.109,3.776
			c0,1.823,1.104,3.725,3.109,3.725c0.924,0,2.311-0.771,2.748-0.771c0.872,0,1.592,0.745,1.592,1.619
			c0,1.901-3.186,2.543-4.521,2.543c-3.981,0-6.627-3.264-6.627-7.116c0-3.751,2.723-7.167,6.627-7.167
			c1.466,0,4.521,0.538,4.521,2.338C59.051,25.313,58.512,26.315,57.637,26.315z"/>
	</g>
	<g>
		<path fill="#FFFFFF" d="M28.252,57.189c0,0.951,0,2.414-1.771,2.414c-1.08,0-1.516-0.591-1.771-1.566
			c-0.951,1.131-2.107,1.723-3.521,1.723c-3.465,0-6.112-2.955-6.112-7.117c0-4.059,2.724-7.166,6.112-7.166
			c1.363,0,2.699,0.538,3.521,1.695c0.103-0.898,0.873-1.541,1.771-1.541c1.771,0,1.771,1.463,1.771,2.414V57.189z M21.703,56.368
			c1.927,0,2.852-1.952,2.852-3.726c0-1.772-0.898-3.775-2.852-3.775c-2.028,0-2.93,2.003-2.93,3.775
			C18.773,54.416,19.699,56.368,21.703,56.368z"/>
		<path fill="#FFFFFF" d="M32.029,41.727c0-1.234,0.77-2.057,1.849-2.057c1.081,0,1.851,0.822,1.851,2.057v5.035
			c0.977-0.85,2.232-1.285,3.518-1.285c3.983,0,5.959,3.725,5.959,7.322c0,3.491-2.362,6.961-6.088,6.961
			c-1.258,0-2.695-0.566-3.389-1.697c-0.231,0.977-0.822,1.541-1.851,1.541c-1.079,0-1.849-0.82-1.849-2.055V41.727z M38.631,56.368
			c1.926,0,2.877-2.004,2.877-3.726c0-1.746-0.951-3.775-2.877-3.775c-1.979,0-2.902,1.85-2.902,3.646
			C35.729,54.312,36.601,56.368,38.631,56.368z"/>
		<path fill="#FFFFFF" d="M57.637,49.586c-0.922,0-1.744-0.719-2.926-0.719c-2.107,0-3.109,1.876-3.109,3.775
			c0,1.823,1.104,3.726,3.109,3.726c0.924,0,2.311-0.771,2.748-0.771c0.872,0,1.592,0.745,1.592,1.619
			c0,1.901-3.186,2.544-4.521,2.544c-3.981,0-6.627-3.265-6.627-7.117c0-3.75,2.723-7.166,6.627-7.166
			c1.466,0,4.521,0.538,4.521,2.338C59.051,48.584,58.512,49.586,57.637,49.586z"/>
	</g>
</g>
</svg>
